<?xml version="1.0" encoding="UTF-8"?>
<svg width="1160px" height="1024px" viewBox="0 0 1160 1024" version="1.1" xmlns="http://www.w3.org/2000/svg" xmlns:xlink="http://www.w3.org/1999/xlink">
    <!-- Generator: Sketch 51.3 (57544) - http://www.bohemiancoding.com/sketch -->
    <title>grid</title>
    <desc>Created with Sketch.</desc>
    <defs>
        <radialGradient cx="50%" cy="61.2225606%" fx="50%" fy="61.2225606%" r="59.0334349%" gradientTransform="translate(0.500000,0.612226),scale(0.571002,1.000000),rotate(-174.583470),translate(-0.500000,-0.612226)" id="radialGradient-1">
            <stop stop-color="#FFFFFF" stop-opacity="0.25" offset="0%"></stop>
            <stop stop-color="#1B1F27" stop-opacity="0.603600543" offset="100%"></stop>
        </radialGradient>
        <radialGradient cx="50%" cy="61.2225606%" fx="50%" fy="61.2225606%" r="32.9261717%" gradientTransform="translate(0.500000,0.612226),scale(0.571002,1.000000),rotate(-172.240478),translate(-0.500000,-0.612226)" id="radialGradient-2">
            <stop stop-color="#FFFFFF" stop-opacity="0.154495018" offset="0%"></stop>
            <stop stop-color="#1B1F27" stop-opacity="0.571699502" offset="100%"></stop>
        </radialGradient>
        <polyline id="path-3" points="1180.21588 0 2359.8529 673.575888 2290.81683 712.994431 1111.17981 39.4185432 1035.04128 82.8932548 2214.67831 756.469142 2147.46002 794.852821 967.822997 121.274851 897.87908 161.21395 2077.5161 834.789838 2008.48003 874.210463 828.843012 200.634576 759.477953 240.242601 1939.11289 913.818489 1871.31575 952.531159 691.680807 278.955271 623.552588 317.855341 1803.18961 991.431229 1730.76785 1032.78416 551.130828 359.208268 481.434695 399.005776 1661.07172 1072.58166 1593.27457 1111.29433 413.637549 437.718446 341.215789 479.071373 1520.85281 1152.64726 1453.38466 1191.17045 273.749716 517.594561 206.200355 556.16564 1385.83738 1229.74153 1313.41562 1271.09446 133.778594 597.518568 64.7425263 636.937111 1244.37955 1310.513 1179.63702 1347.48077 0 673.904879 1180.21588 1.18360613e-13 1244.95632 36.967768 64.7425263 710.872647 137.774378 752.115216 1318.39421 79.5575352 1395.43642 123.284196 214.816589 795.841877 290.513685 839.789253 1470.72748 165.882292 1540.09462 205.490317 359.878744 879.397278 428.006963 918.297348 1608.22076 244.392469 1676.34898 283.292539 496.135182 957.1995 564.592392 996.289052 1744.80619 322.382091 1812.93441 361.284244 632.718529 1035.18912 699.938899 1073.5728 1880.1527 399.66584 1948.28092 438.56591 768.065036 1112.47287 837.432178 1152.0809 2017.64597 478.173936 2087.01312 517.781961 906.797236 1191.68892 974.925456 1230.59107 2155.13925 556.684113 2222.35962 595.06571 1042.14374 1268.97267 1111.51088 1308.5807 2291.72468 634.673736 2359.8529 673.575888 1179.63702 1347.48077"></polyline>
    </defs>
    <g id="Page-1" stroke="none" stroke-width="1" fill="none" fill-rule="evenodd">
        <g id="Group" opacity="0.50234375" transform="translate(-293.000000, -162.000000)" stroke-linecap="round" stroke-linejoin="round">
            <g id="Shape">
                <use stroke="url(#radialGradient-1)" xlink:href="#path-3"></use>
                <use stroke="url(#radialGradient-2)" xlink:href="#path-3"></use>
            </g>
        </g>
        <g id="Cube" transform="translate(584.000000, 444.000000)" fill-rule="nonzero">
            <polygon id="Polygon" fill="#AAB6F6" points="101 0 168 38.5 101 77 34 38.5"></polygon>
            <polygon id="Polygon" fill="#7E91F2" transform="translate(134.500908, 96.249655) rotate(-60.000000) translate(-134.500908, -96.249655) " points="134.421144 57.6121902 201.264628 96.3844414 134.576033 134.887119 67.7371879 96.1121902"></polygon>
            <polygon id="Polygon" fill="#91A1F4" transform="translate(67.651883, 96.160601) scale(-1, 1) rotate(-60.000000) translate(-67.651883, -96.160601) " points="67.571458 57.699946 134.41633 96.4719772 67.6555001 134.621257 0.887435812 96.1999841"></polygon>
        </g>
        <g id="Cube-Copy" transform="translate(233.000000, 246.000000)" fill-rule="nonzero">
            <polygon id="Polygon" fill="#FAAFAA" points="101 0 168 38.5 101 77 34 38.5"></polygon>
            <polygon id="Polygon" fill="#F7675E" transform="translate(134.500908, 96.249655) rotate(-60.000000) translate(-134.500908, -96.249655) " points="134.421144 57.6121902 201.264628 96.3844414 134.576033 134.887119 67.7371879 96.1121902"></polygon>
            <polygon id="Polygon" fill="#FF847D" transform="translate(67.651883, 96.160601) scale(-1, 1) rotate(-60.000000) translate(-67.651883, -96.160601) " points="67.571458 57.699946 134.41633 96.4719772 67.6555001 134.621257 0.887435812 96.1999841"></polygon>
        </g>
    </g>
</svg>