<?xml version="1.0" encoding="UTF-8"?>
<svg width="260px" height="260px" viewBox="0 0 260 260" version="1.1" xmlns="http://www.w3.org/2000/svg" xmlns:xlink="http://www.w3.org/1999/xlink">
    <!-- Generator: Sketch 51.3 (57544) - http://www.bohemiancoding.com/sketch -->
    <title>logo</title>
    <desc>Created with Sketch.</desc>
    <defs></defs>
    <g id="Page-1" stroke="none" stroke-width="1" fill="none" fill-rule="evenodd">
        <g id="logo" transform="translate(5.000000, 5.000000)">
            <circle id="Oval-2" stroke="#151d25" stroke-width="10" fill-rule="nonzero" cx="125" cy="125" r="125"></circle>
            <path d="M48.0212272,145.217227 C48.1839666,138.138062 49.3027833,131.079346 51.3777108,124.040866 C53.4526384,117.002387 56.219167,110.350513 59.6773796,104.085045 C63.1355922,97.8195776 67.2447008,92.0424149 72.0048288,86.7533839 C76.7649567,81.4643529 81.9521978,76.9077176 87.5667077,73.0833413 C99.2839457,65.0277401 111.611272,61 124.549055,61 C137.893687,61 146.966274,66.3296359 151.767086,76.9890677 C153.47585,80.813444 154.269193,85.146316 154.147139,89.9878136 C154.025084,94.8293113 153.231741,99.2638939 151.767086,103.291694 C150.302432,107.319495 148.471641,110.920051 146.274659,114.093469 C141.311106,121.254004 136.306944,124.834217 131.262023,124.834217 C125.647513,124.834217 121.49772,123.288216 118.812519,120.196167 C116.452798,117.510966 115.720481,114.37828 116.615548,110.798012 C116.859657,109.740206 117.591974,108.784127 118.812519,107.929745 C120.033065,107.075363 121.579066,105.71244 123.45057,103.840937 C128.739601,98.307797 131.506129,91.8390023 131.750238,84.4343588 C131.912978,79.3894369 128.820975,76.8670138 122.474138,76.8670138 C115.639082,76.8670138 108.478656,80.6913327 100.992642,88.3400853 C90.0891015,99.4877353 82.3997794,113.767905 77.9244454,131.181022 C74.0186994,146.315788 74.7510158,157.381903 80.1214166,164.379697 C83.2948352,168.448183 87.6073651,170.482395 93.0591355,170.482395 C102.253913,170.482395 111.123078,167.227656 119.666897,160.718079 C122.270728,158.683836 124.386308,156.60894 126.013703,154.493327 C127.641097,152.377715 129.146414,151.319925 130.529699,151.319925 C131.912984,151.319925 133.072485,151.991215 134.008236,153.333815 C134.943988,154.676415 135.411857,156.405495 135.411857,158.521108 C135.411857,163.321921 133.255592,168.041293 128.942997,172.679366 C117.876717,183.257428 104.572969,188.54638 89.0313551,188.54638 C75.7680926,188.54638 65.5156632,184.762745 58.2737591,177.195362 C51.1132248,169.709349 47.6957483,159.050077 48.0212272,145.217227 Z M167.946947,183.176006 C166.156814,181.385873 164.732865,179.331318 163.675059,177.012282 C162.617253,174.693245 162.088358,172.008085 162.088358,168.956721 C162.088358,165.905357 162.678279,163.179512 163.85814,160.779106 C165.038001,158.378699 166.522976,156.446198 168.313109,154.981543 C171.486528,152.377712 174.842978,151.075817 178.38256,151.075817 C181.922143,151.075817 184.932777,151.319922 187.414553,151.80814 C189.896329,152.296359 192.235673,153.069359 194.432655,154.127165 C199.477577,156.730996 202,160.473947 202,165.356129 C202,171.458857 200.006472,176.788493 196.019356,181.345197 C192.27635,185.576422 188.391004,187.895424 184.363204,188.302272 C180.335403,188.709121 177.060322,188.403989 174.537861,187.386867 C172.0154,186.369746 169.818451,184.96614 167.946947,183.176006 Z" id="c." fill="#151d25"></path>
        </g>
    </g>
</svg>
